
<svg xmlns="http://www.w3.org/2000/svg" width="1000" height="1400" viewBox="0 0 1000 1400" style="background-color:#333333; font-family: 'Times New Roman', serif;">
  <!-- Decorative Borders -->
  <rect x="50" y="50" width="900" height="1300" fill="none" stroke="#d4af37" stroke-width="10" />
  <rect x="100" y="100" width="800" height="1200" fill="none" stroke="#d4af37" stroke-width="5" />

  <!-- Title Section -->
  <text x="500" y="180" text-anchor="middle" fill="#d4af37" font-size="48" font-weight="bold">LUXURY DINNER MENU</text>

  <!-- Star Divider -->
  <text x="500" y="220" text-anchor="middle" fill="#d4af37" font-size="24">★ ★ ★</text>

  <!-- Appetizers Section -->
  <text x="500" y="300" text-anchor="middle" fill="#ffffff" font-size="32" font-weight="bold">APPETIZERS</text>
  <g font-size="20" fill="#f2f2f2">
    <text x="150" y="350">Smoked Salmon</text><text x="850" y="350" text-anchor="end">$15</text>
    <text x="150" y="380">Brie Cheese Plate</text><text x="850" y="380" text-anchor="end">$12</text>
    <text x="150" y="410">Prosciutto and Melon</text><text x="850" y="410" text-anchor="end">$18</text>
  </g>

  <!-- Main Course Section -->
  <text x="500" y="500" text-anchor="middle" fill="#ffffff" font-size="32" font-weight="bold">MAIN COURSE</text>
  <g font-size="20" fill="#f2f2f2">
    <text x="150" y="550">Filet Mignon</text><text x="850" y="550" text-anchor="end">$40</text>
    <text x="150" y="580">Seared Scallops</text><text x="850" y="580" text-anchor="end">$35</text>
    <text x="150" y="610">Lobster Risotto</text><text x="850" y="610" text-anchor="end">$42</text>
  </g>

  <!-- Desserts Section -->
  <text x="500" y="700" text-anchor="middle" fill="#ffffff" font-size="32" font-weight="bold">DESSERTS</text>
  <g font-size="20" fill="#f2f2f2">
    <text x="150" y="750">Crème Brûlée</text><text x="850" y="750" text-anchor="end">$12</text>
    <text x="150" y="780">Chocolate Soufflé</text><text x="850" y="780" text-anchor="end">$14</text>
    <text x="150" y="810">Tiramisu</text><text x="850" y="810" text-anchor="end">$11</text>
  </g>

  <!-- Wine Section -->
  <text x="500" y="900" text-anchor="middle" fill="#ffffff" font-size="32" font-weight="bold">WINE SELECTION</text>
  <g font-size="20" fill="#f2f2f2">
    <text x="150" y="950">Chardonnay</text><text x="850" y="950" text-anchor="end">$30</text>
    <text x="150" y="980">Cabernet Sauvignon</text><text x="850" y="980" text-anchor="end">$35</text>
    <text x="150" y="1010">Merlot</text><text x="850" y="1010" text-anchor="end">$32</text>
  </g>

  <!-- Footer Decoration -->
  <text x="500" y="1300" text-anchor="middle" fill="#d4af37" font-size="18">© 2024 Luxury Restaurant</text>
</svg>
