<svg xmlns="http://www.w3.org/2000/svg" width="1000" height="1400" viewBox="0 0 1000 1400" style="background-color:#ffe4e1; font-family: 'Comic Sans MS', cursive;">
  <!-- Header with Background Color -->
  <rect x="0" y="0" width="1000" height="150" fill="#ff6f61" />
  <text x="500" y="100" text-anchor="middle" fill="#ffffff" font-size="48" font-weight="bold">VIBRANT BRUNCH MENU</text>

  <!-- Icons Row -->
  <circle cx="100" cy="200" r="30" fill="#ffa07a" />
  <circle cx="900" cy="200" r="30" fill="#ff6347" />
  <rect x="450" y="170" width="100" height="60" rx="10" fill="#ff4500" />
  
  <!-- Smoothies Section -->
  <text x="500" y="300" text-anchor="middle" fill="#ff6347" font-size="32" font-weight="bold">SMOOTHIES</text>
  <g font-size="22" fill="#333333">
    <text x="150" y="350">Strawberry Banana</text><text x="850" y="350" text-anchor="end">$8</text>
    <text x="150" y="380">Mango Delight</text><text x="850" y="380" text-anchor="end">$9</text>
    <text x="150" y="410">Green Detox</text><text x="850" y="410" text-anchor="end">$10</text>
  </g>

  <!-- Sandwiches Section -->
  <text x="500" y="500" text-anchor="middle" fill="#ff4500" font-size="32" font-weight="bold">SANDWICHES</text>
  <g font-size="22" fill="#333333">
    <text x="150" y="550">Turkey Club</text><text x="850" y="550" text-anchor="end">$12</text>
    <text x="150" y="580">BLT</text><text x="850" y="580" text-anchor="end">$11</text>
    <text x="150" y="610">Grilled Cheese</text><text x="850" y="610" text-anchor="end">$10</text>
  </g>

  <!-- Dessert Section -->
  <text x="500" y="700" text-anchor="middle" fill="#ffa07a" font-size="32" font-weight="bold">DESSERTS</text>
  <g font-size="22" fill="#333333">
    <text x="150" y="750">Chocolate Cake</text><text x="850" y="750" text-anchor="end">$7</text>
    <text x="150" y="780">Cheesecake</text><text x="850" y="780" text-anchor="end">$8</text>
    <text x="150" y="810">Ice Cream Sundae</text><text x="850" y="810" text-anchor="end">$6</text>
  </g>

  <!-- Decorative Line -->
  <line x1="100" y1="850" x2="900" y2="850" stroke="#ff6347" stroke-width="5" />

  <!-- Footer Note -->
  <text x="500" y="1300" text-anchor="middle" fill="#ff4500" font-size="18">© 2024 Vibrant Cafe</text>
</svg>
